<mxfile host="app.diagrams.net" modified="2022-07-14T15:29:31.269Z" agent="5.0 (X11; Linux x86_64) AppleWebKit/537.36 (KHTML, like Gecko) Chrome/102.0.0.0 Safari/537.36" etag="Psaf7BL1NPM7HyErMEBJ" version="20.1.1" type="github">
  <diagram id="r1uXpdKRCfTeo72BGtkF" name="Page-1">
    <mxGraphModel dx="1125" dy="644" grid="1" gridSize="10" guides="1" tooltips="1" connect="1" arrows="1" fold="1" page="1" pageScale="1" pageWidth="827" pageHeight="1169" math="0" shadow="0">
      <root>
        <mxCell id="0" />
        <mxCell id="1" parent="0" />
        <mxCell id="oPO_9aN8l0oO0LtUnZyv-4" value="" style="edgeStyle=orthogonalEdgeStyle;rounded=0;orthogonalLoop=1;jettySize=auto;html=1;" parent="1" source="oPO_9aN8l0oO0LtUnZyv-1" target="oPO_9aN8l0oO0LtUnZyv-3" edge="1">
          <mxGeometry relative="1" as="geometry" />
        </mxCell>
        <mxCell id="oPO_9aN8l0oO0LtUnZyv-9" value="" style="edgeStyle=orthogonalEdgeStyle;rounded=0;orthogonalLoop=1;jettySize=auto;html=1;" parent="1" source="oPO_9aN8l0oO0LtUnZyv-1" edge="1">
          <mxGeometry relative="1" as="geometry">
            <mxPoint x="260" y="140" as="targetPoint" />
          </mxGeometry>
        </mxCell>
        <mxCell id="kPaHrOHMG2eySoIag-1M-3" value="" style="edgeStyle=orthogonalEdgeStyle;rounded=0;orthogonalLoop=1;jettySize=auto;html=1;" edge="1" parent="1" source="oPO_9aN8l0oO0LtUnZyv-1">
          <mxGeometry relative="1" as="geometry">
            <mxPoint x="390" y="250" as="targetPoint" />
          </mxGeometry>
        </mxCell>
        <object placeholders="1" c4Name="Mobile App / Website" c4Type="User" c4Description="" label="&lt;font style=&quot;font-size: 16px&quot;&gt;&lt;b&gt;%c4Name%&lt;/b&gt;&lt;/font&gt;&lt;div&gt;[%c4Type%]&lt;/div&gt;&lt;br&gt;&lt;div&gt;&lt;font style=&quot;font-size: 11px&quot;&gt;&lt;font color=&quot;#cccccc&quot;&gt;%c4Description%&lt;/font&gt;&lt;/div&gt;" id="oPO_9aN8l0oO0LtUnZyv-1">
          <mxCell style="html=1;fontSize=11;dashed=0;whitespace=wrap;fillColor=#083F75;strokeColor=#06315C;fontColor=#ffffff;shape=mxgraph.c4.person2;align=center;metaEdit=1;points=[[0.5,0,0],[1,0.5,0],[1,0.75,0],[0.75,1,0],[0.5,1,0],[0.25,1,0],[0,0.75,0],[0,0.5,0]];resizable=0;" parent="1" vertex="1">
            <mxGeometry x="290" y="50" width="200" height="180" as="geometry" />
          </mxCell>
        </object>
        <mxCell id="kPaHrOHMG2eySoIag-1M-30" value="" style="edgeStyle=orthogonalEdgeStyle;rounded=0;orthogonalLoop=1;jettySize=auto;html=1;" edge="1" parent="1" source="oPO_9aN8l0oO0LtUnZyv-3" target="kPaHrOHMG2eySoIag-1M-29">
          <mxGeometry relative="1" as="geometry" />
        </mxCell>
        <mxCell id="oPO_9aN8l0oO0LtUnZyv-3" value="DNS Resolver" style="ellipse;whiteSpace=wrap;html=1;fontSize=11;fillColor=#083F75;strokeColor=#06315C;fontColor=#ffffff;dashed=0;" parent="1" vertex="1">
          <mxGeometry x="543.5" y="110" width="120" height="60" as="geometry" />
        </mxCell>
        <mxCell id="kPaHrOHMG2eySoIag-1M-11" value="" style="edgeStyle=orthogonalEdgeStyle;rounded=0;orthogonalLoop=1;jettySize=auto;html=1;" edge="1" parent="1">
          <mxGeometry relative="1" as="geometry">
            <mxPoint x="390" y="310" as="sourcePoint" />
            <mxPoint x="390" y="370" as="targetPoint" />
          </mxGeometry>
        </mxCell>
        <mxCell id="kPaHrOHMG2eySoIag-1M-12" value="" style="swimlane;startSize=0;" vertex="1" parent="1">
          <mxGeometry x="290" y="430" width="200" height="100" as="geometry" />
        </mxCell>
        <mxCell id="kPaHrOHMG2eySoIag-1M-14" value="" style="aspect=fixed;perimeter=ellipsePerimeter;html=1;align=center;shadow=0;dashed=0;spacingTop=3;image;image=img/lib/active_directory/generic_server.svg;" vertex="1" parent="kPaHrOHMG2eySoIag-1M-12">
          <mxGeometry x="20" y="30" width="28.000000000000004" height="50" as="geometry" />
        </mxCell>
        <mxCell id="kPaHrOHMG2eySoIag-1M-15" value="" style="aspect=fixed;perimeter=ellipsePerimeter;html=1;align=center;shadow=0;dashed=0;spacingTop=3;image;image=img/lib/active_directory/generic_server.svg;" vertex="1" parent="kPaHrOHMG2eySoIag-1M-12">
          <mxGeometry x="70" y="30" width="28.000000000000004" height="50" as="geometry" />
        </mxCell>
        <mxCell id="kPaHrOHMG2eySoIag-1M-16" value="" style="aspect=fixed;perimeter=ellipsePerimeter;html=1;align=center;shadow=0;dashed=0;spacingTop=3;image;image=img/lib/active_directory/generic_server.svg;" vertex="1" parent="kPaHrOHMG2eySoIag-1M-12">
          <mxGeometry x="120" y="30" width="28.000000000000004" height="50" as="geometry" />
        </mxCell>
        <mxCell id="kPaHrOHMG2eySoIag-1M-17" value="" style="aspect=fixed;perimeter=ellipsePerimeter;html=1;align=center;shadow=0;dashed=0;spacingTop=3;image;image=img/lib/active_directory/generic_server.svg;" vertex="1" parent="kPaHrOHMG2eySoIag-1M-12">
          <mxGeometry x="166" y="30" width="28.000000000000004" height="50" as="geometry" />
        </mxCell>
        <mxCell id="kPaHrOHMG2eySoIag-1M-48" value="Web Servers" style="text;html=1;align=center;verticalAlign=middle;resizable=0;points=[];autosize=1;strokeColor=none;fillColor=none;" vertex="1" parent="kPaHrOHMG2eySoIag-1M-12">
          <mxGeometry width="90" height="30" as="geometry" />
        </mxCell>
        <mxCell id="kPaHrOHMG2eySoIag-1M-21" style="edgeStyle=orthogonalEdgeStyle;rounded=0;orthogonalLoop=1;jettySize=auto;html=1;exitX=0.49;exitY=1;exitDx=0;exitDy=0;exitPerimeter=0;entryX=0.5;entryY=0;entryDx=0;entryDy=0;" edge="1" parent="1" source="kPaHrOHMG2eySoIag-1M-18" target="kPaHrOHMG2eySoIag-1M-12">
          <mxGeometry relative="1" as="geometry" />
        </mxCell>
        <mxCell id="kPaHrOHMG2eySoIag-1M-18" value="" style="sketch=0;aspect=fixed;pointerEvents=1;shadow=0;dashed=0;html=1;strokeColor=none;labelPosition=center;verticalLabelPosition=bottom;verticalAlign=top;align=center;fillColor=#00188D;shape=mxgraph.azure.load_balancer_generic" vertex="1" parent="1">
          <mxGeometry x="375.2" y="370" width="29.6" height="40" as="geometry" />
        </mxCell>
        <mxCell id="kPaHrOHMG2eySoIag-1M-32" value="" style="edgeStyle=orthogonalEdgeStyle;rounded=0;orthogonalLoop=1;jettySize=auto;html=1;" edge="1" parent="1" source="kPaHrOHMG2eySoIag-1M-23" target="kPaHrOHMG2eySoIag-1M-31">
          <mxGeometry relative="1" as="geometry" />
        </mxCell>
        <mxCell id="kPaHrOHMG2eySoIag-1M-23" value="" style="outlineConnect=0;dashed=0;verticalLabelPosition=bottom;verticalAlign=top;align=center;html=1;shape=mxgraph.aws3.api_gateway;fillColor=#D9A741;gradientColor=none;" vertex="1" parent="1">
          <mxGeometry x="351.75" y="250" width="76.5" height="93" as="geometry" />
        </mxCell>
        <mxCell id="kPaHrOHMG2eySoIag-1M-24" value="" style="aspect=fixed;html=1;points=[];align=center;image;fontSize=12;image=img/lib/azure2/app_services/CDN_Profiles.svg;" vertex="1" parent="1">
          <mxGeometry x="200" y="110" width="68" height="40" as="geometry" />
        </mxCell>
        <mxCell id="kPaHrOHMG2eySoIag-1M-28" value="CDN" style="text;html=1;align=center;verticalAlign=middle;resizable=0;points=[];autosize=1;strokeColor=none;fillColor=none;" vertex="1" parent="1">
          <mxGeometry x="218" y="120" width="50" height="30" as="geometry" />
        </mxCell>
        <mxCell id="kPaHrOHMG2eySoIag-1M-29" value="" style="fillColor=#28A8E0;verticalLabelPosition=bottom;sketch=0;html=1;strokeColor=#ffffff;verticalAlign=top;align=center;points=[[0.145,0.145,0],[0.5,0,0],[0.855,0.145,0],[1,0.5,0],[0.855,0.855,0],[0.5,1,0],[0.145,0.855,0],[0,0.5,0]];pointerEvents=1;shape=mxgraph.cisco_safe.compositeIcon;bgIcon=ellipse;resIcon=mxgraph.cisco_safe.capability.dns;" vertex="1" parent="1">
          <mxGeometry x="690" y="120" width="43" height="43" as="geometry" />
        </mxCell>
        <mxCell id="kPaHrOHMG2eySoIag-1M-33" value="" style="edgeStyle=orthogonalEdgeStyle;rounded=0;orthogonalLoop=1;jettySize=auto;html=1;" edge="1" parent="1" source="kPaHrOHMG2eySoIag-1M-31" target="kPaHrOHMG2eySoIag-1M-23">
          <mxGeometry relative="1" as="geometry" />
        </mxCell>
        <mxCell id="kPaHrOHMG2eySoIag-1M-31" value="" style="verticalLabelPosition=bottom;sketch=0;html=1;fillColor=#282828;strokeColor=none;verticalAlign=top;pointerEvents=1;align=center;shape=mxgraph.cisco_safe.security_icons.iam;" vertex="1" parent="1">
          <mxGeometry x="530" y="255" width="60" height="65" as="geometry" />
        </mxCell>
        <mxCell id="kPaHrOHMG2eySoIag-1M-34" value="Credentials" style="text;html=1;align=center;verticalAlign=middle;resizable=0;points=[];autosize=1;strokeColor=none;fillColor=none;" vertex="1" parent="1">
          <mxGeometry x="440" y="265" width="80" height="30" as="geometry" />
        </mxCell>
        <mxCell id="kPaHrOHMG2eySoIag-1M-35" value="JWT" style="text;html=1;align=center;verticalAlign=middle;resizable=0;points=[];autosize=1;strokeColor=none;fillColor=none;" vertex="1" parent="1">
          <mxGeometry x="445" y="295" width="50" height="30" as="geometry" />
        </mxCell>
        <mxCell id="kPaHrOHMG2eySoIag-1M-36" value="IAM" style="text;html=1;align=center;verticalAlign=middle;resizable=0;points=[];autosize=1;strokeColor=none;fillColor=none;" vertex="1" parent="1">
          <mxGeometry x="580" y="255" width="40" height="30" as="geometry" />
        </mxCell>
        <mxCell id="kPaHrOHMG2eySoIag-1M-37" value="API Gateway" style="text;html=1;align=center;verticalAlign=middle;resizable=0;points=[];autosize=1;strokeColor=none;fillColor=none;" vertex="1" parent="1">
          <mxGeometry x="290" y="281.5" width="90" height="30" as="geometry" />
        </mxCell>
        <mxCell id="kPaHrOHMG2eySoIag-1M-39" value="" style="aspect=fixed;perimeter=ellipsePerimeter;html=1;align=center;shadow=0;dashed=0;spacingTop=3;image;image=img/lib/active_directory/database.svg;" vertex="1" parent="1">
          <mxGeometry x="220" y="570" width="50" height="37" as="geometry" />
        </mxCell>
        <mxCell id="kPaHrOHMG2eySoIag-1M-40" value="" style="aspect=fixed;perimeter=ellipsePerimeter;html=1;align=center;shadow=0;dashed=0;spacingTop=3;image;image=img/lib/active_directory/database.svg;" vertex="1" parent="1">
          <mxGeometry x="250" y="580" width="50" height="37" as="geometry" />
        </mxCell>
        <mxCell id="kPaHrOHMG2eySoIag-1M-41" value="" style="aspect=fixed;perimeter=ellipsePerimeter;html=1;align=center;shadow=0;dashed=0;spacingTop=3;image;image=img/lib/active_directory/database.svg;" vertex="1" parent="1">
          <mxGeometry x="280" y="590" width="50" height="37" as="geometry" />
        </mxCell>
        <mxCell id="kPaHrOHMG2eySoIag-1M-42" value="" style="swimlane;startSize=0;" vertex="1" parent="1">
          <mxGeometry x="210" y="560" width="130" height="70" as="geometry" />
        </mxCell>
        <mxCell id="kPaHrOHMG2eySoIag-1M-46" value="Slave" style="text;html=1;align=center;verticalAlign=middle;resizable=0;points=[];autosize=1;strokeColor=none;fillColor=none;" vertex="1" parent="kPaHrOHMG2eySoIag-1M-42">
          <mxGeometry x="40" y="13.5" width="50" height="30" as="geometry" />
        </mxCell>
        <mxCell id="kPaHrOHMG2eySoIag-1M-47" value="Slave" style="text;html=1;align=center;verticalAlign=middle;resizable=0;points=[];autosize=1;strokeColor=none;fillColor=none;" vertex="1" parent="kPaHrOHMG2eySoIag-1M-42">
          <mxGeometry x="70" y="23.5" width="50" height="30" as="geometry" />
        </mxCell>
        <mxCell id="kPaHrOHMG2eySoIag-1M-43" value="" style="sketch=0;aspect=fixed;html=1;points=[];align=center;image;fontSize=12;image=img/lib/mscae/Cache_Redis_Product.svg;" vertex="1" parent="1">
          <mxGeometry x="428.25" y="563" width="50" height="42" as="geometry" />
        </mxCell>
        <mxCell id="kPaHrOHMG2eySoIag-1M-45" value="Master" style="text;html=1;align=center;verticalAlign=middle;resizable=0;points=[];autosize=1;strokeColor=none;fillColor=none;" vertex="1" parent="1">
          <mxGeometry x="213" y="560" width="60" height="30" as="geometry" />
        </mxCell>
        <mxCell id="kPaHrOHMG2eySoIag-1M-49" value="Load Balancer" style="text;html=1;align=center;verticalAlign=middle;resizable=0;points=[];autosize=1;strokeColor=none;fillColor=none;" vertex="1" parent="1">
          <mxGeometry x="285" y="360" width="100" height="30" as="geometry" />
        </mxCell>
      </root>
    </mxGraphModel>
  </diagram>
</mxfile>
